<svg width="1381" height="1172" viewBox="0 0 1381 1172" fill="none" xmlns="http://www.w3.org/2000/svg">
<path d="M1381 0H222.116H5.82806C5.82806 0 0.246443 53.7977 0.246443 88.2688C0.246443 134.465 -1.78698 160.832 5.82806 206.561C13.7773 254.297 22.4816 281.489 46.9925 324.853C69.7054 365.037 85.7787 387.402 122.344 419.127C156.161 448.466 180.196 460.82 222.116 480.975C265.097 501.64 294.315 503.951 338.632 522.407C364.414 533.144 379.451 538.467 403.519 551.83C432.339 567.833 450.515 576.185 471.893 599.267C496.449 625.78 520.035 678.529 520.035 678.529C520.035 678.529 561.033 755.928 582.13 808.83C592.992 836.067 594.822 852.499 605.852 879.686C617.329 907.972 624.023 923.939 640.04 950.541C663.128 988.887 682.393 1017.68 715.392 1050.22C745.186 1079.6 756.754 1090.67 796.325 1109.66L796.582 1109.79C843.319 1132.22 876.413 1148.11 931.68 1160.1C1003.05 1175.6 1120.06 1171.51 1120.06 1171.51C1120.06 1171.51 1250.11 1160.65 1307.74 1125.28C1351.71 1098.29 1381 1041.81 1381 1041.81V0Z" fill="#DE7A66" fill-opacity="0.57"/>
</svg>
